<svg width="34" height="31" viewBox="0 0 34 31" fill="none" xmlns="http://www.w3.org/2000/svg">
<path d="M32.0505 5.65332H2.07362C1.2277 5.65332 0.541992 6.29442 0.541992 7.08519V7.30132C0.541992 8.09209 1.2277 8.73313 2.07362 8.73313H32.0505C32.8965 8.73313 33.5822 8.09209 33.5822 7.30132V7.08519C33.5822 6.29442 32.8965 5.65332 32.0505 5.65332Z" fill="#4A5699"/>
<path d="M32.0505 24.8755H2.07362C1.2277 24.8755 0.541992 25.5165 0.541992 26.3073V26.5235C0.541992 27.3142 1.2277 27.9553 2.07362 27.9553H32.0505C32.8965 27.9553 33.5822 27.3142 33.5822 26.5235V26.3073C33.5822 25.5165 32.8965 24.8755 32.0505 24.8755Z" fill="#C45FA0"/>
<path d="M2.30448 5.65332H2.06933C1.20203 5.65332 0.499023 6.29442 0.499023 7.08519V26.5235C0.499023 27.3142 1.20203 27.9553 2.06933 27.9553H2.30448C3.17178 27.9553 3.87479 27.3142 3.87479 26.5235V7.08519C3.87482 6.29442 3.17178 5.65332 2.30448 5.65332ZM32.0115 5.65332H31.7763C30.9091 5.65332 30.206 6.29442 30.206 7.08519V26.5235C30.206 27.3142 30.9091 27.9553 31.7763 27.9553H32.0115C32.8788 27.9553 33.5819 27.3142 33.5819 26.5235V7.08519C33.5819 6.29442 32.8788 5.65332 32.0115 5.65332Z" fill="#F39A2B"/>
<path d="M14.1649 13.1938H13.9297C13.0624 13.1938 12.3593 13.8348 12.3593 14.6256V15.7976C12.3593 16.5883 13.0624 17.2294 13.9297 17.2294H14.1649C15.0322 17.2294 15.7353 16.5883 15.7353 15.7976V14.6256C15.7353 13.8348 15.0322 13.1938 14.1649 13.1938ZM19.9852 13.1938H19.7501C18.8829 13.1938 18.1798 13.8348 18.1798 14.6256V15.7976C18.1798 16.5883 18.8829 17.2294 19.7501 17.2294H19.9852C20.8524 17.2294 21.5557 16.5883 21.5557 15.7976V14.6256C21.5557 13.8348 20.8524 13.1938 19.9852 13.1938ZM25.8057 13.1938H25.5705C24.7032 13.1938 24.0002 13.8348 24.0002 14.6256V15.7976C24.0002 16.5883 24.7032 17.2294 25.5705 17.2294H25.8057C26.6729 17.2294 27.3759 16.5883 27.3759 15.7976V14.6256C27.3759 13.8348 26.6729 13.1938 25.8057 13.1938ZM25.8057 18.5039H25.5705C24.7032 18.5039 24.0002 19.1448 24.0002 19.9356V21.1077C24.0002 21.8982 24.7032 22.5394 25.5705 22.5394H25.8057C26.6729 22.5394 27.3759 21.8982 27.3759 21.1077V19.9356C27.3759 19.1448 26.6729 18.5039 25.8057 18.5039ZM19.9852 18.5039H19.7501C18.8829 18.5039 18.1798 19.1448 18.1798 19.9356V21.1077C18.1798 21.8982 18.8829 22.5394 19.7501 22.5394H19.9852C20.8524 22.5394 21.5557 21.8982 21.5557 21.1077V19.9356C21.5557 19.1448 20.8524 18.5039 19.9852 18.5039ZM14.1649 18.5039H13.9297C13.0624 18.5039 12.3593 19.1448 12.3593 19.9356V21.1077C12.3593 21.8982 13.0624 22.5394 13.9297 22.5394H14.1649C15.0322 22.5394 15.7353 21.8982 15.7353 21.1077V19.9356C15.7353 19.1448 15.0322 18.5039 14.1649 18.5039ZM8.34445 18.5039H8.10937C7.24201 18.5039 6.53906 19.1448 6.53906 19.9356V21.1077C6.53906 21.8982 7.24201 22.5394 8.10937 22.5394H8.34445C9.21181 22.5394 9.91476 21.8982 9.91476 21.1077V19.9356C9.91476 19.1448 9.21181 18.5039 8.34445 18.5039Z" fill="#E5594F"/>
<path d="M9.93589 2.78271H9.68903C8.8216 2.78271 8.11865 3.38782 8.11865 4.13439V9.45274C8.11865 10.1992 8.8216 10.8044 9.68903 10.8044H9.93589C10.8033 10.8044 11.5063 10.1992 11.5063 9.45274V4.13439C11.5063 3.38782 10.8033 2.78271 9.93589 2.78271ZM23.9048 2.78271H23.6578C22.7906 2.78271 22.0876 3.38782 22.0876 4.13439V9.45274C22.0876 10.1992 22.7906 10.8044 23.6578 10.8044H23.9048C24.7722 10.8044 25.4752 10.1992 25.4752 9.45274V4.13439C25.4752 3.38782 24.7722 2.78271 23.9048 2.78271Z" fill="#6277BA"/>
</svg>
