<svg width="24" height="23" viewBox="0 0 24 23" fill="none" xmlns="http://www.w3.org/2000/svg">
<path d="M12.0029 1.50049H23.5558V3.50098H12.0029V1.50049Z" fill="#5FFFBA"/>
<path d="M8.33641 12.5034H1.66603C0.747056 12.5034 3.2967e-08 13.2505 0 14.1695V20.8367C0 21.7557 0.747056 22.5027 1.66603 22.5027H8.33329C9.25226 22.5027 9.99932 21.7557 9.99932 20.8367V14.1695C10.0024 13.2505 9.25538 12.5034 8.33641 12.5034ZM8.00195 19.577C8.00195 20.0896 7.58623 20.5054 7.0736 20.5054H2.92884C2.41622 20.5054 2.00049 20.0896 2.00049 19.577V15.4323C2.00049 14.9196 2.41622 14.5039 2.92884 14.5039H7.07673C7.58935 14.5039 8.00508 14.9196 8.00508 15.4323V19.577H8.00195Z" fill="#FFD561"/>
<path d="M12.0029 14.0034H23.5558V16.0039H12.0029V14.0034Z" fill="#5FFFBA"/>
<path d="M8.33641 0H1.66603C0.747056 0 3.2967e-08 0.747057 0 1.66603V8.33328C0 9.25226 0.747056 9.99932 1.66603 9.99932H8.33329C9.25226 9.99932 9.99932 9.25226 9.99932 8.33328V1.66603C10.0024 0.747057 9.25538 0 8.33641 0ZM8.00195 7.0736C8.00195 7.58623 7.58623 8.00195 7.0736 8.00195H2.92884C2.41622 8.00195 2.00049 7.58623 2.00049 7.0736V2.92884C2.00049 2.41621 2.41622 2.00049 2.92884 2.00049H7.07673C7.58935 2.00049 8.00508 2.41621 8.00508 2.92884V7.0736H8.00195Z" fill="#FFA28D"/>
<path d="M12.0029 6.50195H23.5558V8.50244H12.0029V6.50195ZM12.0029 19.005H23.5558V21.0055H12.0029V19.005Z" fill="#5FFFBA"/>
</svg>
