<svg width="40" height="26" viewBox="0 0 40 26" fill="none" xmlns="http://www.w3.org/2000/svg">
<path d="M39 1V25H1V1H39ZM4.5113 21.396H18.2706C18.2706 17.4899 15.1895 14.324 11.3909 14.324C7.59107 14.324 4.5113 17.4899 4.5113 21.396ZM16.004 9.38382C16.004 6.76404 13.9382 4.6418 11.3909 4.6418C8.84239 4.6418 6.77654 6.76404 6.77654 9.38382C6.77654 12.0036 8.84239 14.1258 11.3909 14.1258C13.9382 14.1258 16.004 12.0036 16.004 9.38382Z" fill="#5FCEFF"/>
<path d="M18 22H4C4 18.0366 7.13365 14.8243 11 14.8243C14.865 14.8243 18 18.0366 18 22ZM11 5C13.5918 5 15.6938 7.15339 15.6938 9.8116C15.6938 12.4698 13.5918 14.6232 11 14.6232C8.40686 14.6232 6.30486 12.4698 6.30486 9.8116C6.30486 7.15339 8.40686 5 11 5Z" fill="#FFB578"/>
<path d="M39.0781 26H0.921932C0.677421 26 0.442923 25.9001 0.270028 25.7224C0.0971318 25.5446 0 25.3035 0 25.0521V0.947917C0 0.696514 0.0971318 0.455407 0.270028 0.277638C0.442923 0.0998695 0.677421 0 0.921932 0H39.0781C39.3226 0 39.5571 0.0998695 39.73 0.277638C39.9029 0.455407 40 0.696514 40 0.947917V25.0521C40 25.3035 39.9029 25.5446 39.73 25.7224C39.5571 25.9001 39.3226 26 39.0781 26ZM1.84386 24.1042H38.1561V1.89583H1.84386V24.1042Z" fill="#4F46A3"/>
<path d="M11.0007 15C7.69193 15 5 12.5328 5 9.5C5 6.46724 7.69193 4 11.0007 4C14.3086 4 17 6.46724 17 9.5C17 12.5328 14.3088 15 11.0007 15ZM11.0007 5.82607C8.79007 5.82607 6.9917 7.47425 6.9917 9.50013C6.9917 11.526 8.79021 13.1742 11.0007 13.1742C13.2105 13.1742 15.0083 11.526 15.0083 9.50013C15.0083 7.47425 13.2105 5.82607 11.0007 5.82607Z" fill="#4F46A3"/>
<path d="M18.1935 22C17.9414 22 17.6997 21.9002 17.5214 21.7226C17.3432 21.545 17.243 21.3041 17.243 21.0529C17.243 17.6621 14.4747 14.9037 11.072 14.9037C7.66925 14.9037 4.90088 17.6623 4.90088 21.0529C4.90088 21.3041 4.80075 21.545 4.6225 21.7226C4.44426 21.9002 4.20251 22 3.95044 22C3.69837 22 3.45662 21.9002 3.27838 21.7226C3.10014 21.545 3 21.3041 3 21.0529C3 16.6178 6.62105 13.0096 11.072 13.0096C15.5229 13.0096 19.1439 16.6178 19.1439 21.0529C19.1439 21.5761 18.7185 22 18.1935 22ZM36.0496 7.89415H22.4718C22.2198 7.89415 21.978 7.79437 21.7998 7.61676C21.6215 7.43915 21.5214 7.19825 21.5214 6.94707C21.5214 6.69589 21.6215 6.455 21.7998 6.27739C21.978 6.09978 22.2198 6 22.4718 6H36.0496C36.3016 6 36.5434 6.09978 36.7216 6.27739C36.8999 6.455 37 6.69589 37 6.94707C37 7.19825 36.8999 7.43915 36.7216 7.61676C36.5434 7.79437 36.3016 7.89415 36.0496 7.89415ZM36.0496 13.7119H22.4718C22.2198 13.7119 21.978 13.6121 21.7998 13.4345C21.6215 13.2569 21.5214 13.016 21.5214 12.7648C21.5214 12.5136 21.6215 12.2727 21.7998 12.0951C21.978 11.9175 22.2198 11.8177 22.4718 11.8177H36.0496C36.3016 11.8177 36.5434 11.9175 36.7216 12.0951C36.8999 12.2727 37 12.5136 37 12.7648C37 13.016 36.8999 13.2569 36.7216 13.4345C36.5434 13.6121 36.3016 13.7119 36.0496 13.7119ZM36.0496 19.5296H22.4718C22.347 19.5296 22.2234 19.5051 22.1081 19.4575C21.9928 19.4099 21.888 19.3402 21.7998 19.2522C21.7115 19.1643 21.6415 19.0599 21.5937 18.945C21.546 18.8301 21.5214 18.7069 21.5214 18.5826C21.5214 18.4582 21.546 18.335 21.5937 18.2201C21.6415 18.1052 21.7115 18.0008 21.7998 17.9129C21.888 17.8249 21.9928 17.7552 22.1081 17.7076C22.2234 17.66 22.347 17.6355 22.4718 17.6355H36.0496C36.3016 17.6355 36.5434 17.7353 36.7216 17.9129C36.8999 18.0905 37 18.3314 37 18.5826C37 18.8337 36.8999 19.0746 36.7216 19.2522C36.5434 19.4298 36.3016 19.5296 36.0496 19.5296Z" fill="#4F46A3"/>
</svg>
